<svg width="859" height="879" viewBox="0 0 859 879" fill="none" xmlns="http://www.w3.org/2000/svg">
<path d="M429.5 9.13867C661.659 9.13876 849.861 197.341 849.861 429.5C849.861 661.659 661.659 849.861 429.5 849.861C197.341 849.861 9.13876 661.659 9.13867 429.5C9.13867 197.341 197.341 9.13867 429.5 9.13867Z" fill="#FEF3E2" stroke="#115437" stroke-width="18.2766"/>
<path d="M383.247 631.034C416.842 651.34 434.945 651.766 465.843 631.034" stroke="#115437" stroke-width="19.8231" stroke-linecap="round"/>
<path d="M377.596 849.427V686.316C339.35 682.896 323.499 672.903 310.561 632.934V475.754H541.83V632.934C528.672 671.355 513.818 681.675 478.147 686.316V849.427" stroke="#115437" stroke-width="19.8231"/>
<path d="M376.639 588.084C376.639 593.558 381.076 597.996 386.55 597.996C392.024 597.996 396.462 593.558 396.462 588.084H376.639ZM386.55 515.4H376.639V588.084H386.55H396.462V515.4H386.55Z" fill="#115437"/>
<path d="M446.019 588.084C446.019 593.558 450.457 597.996 455.931 597.996C461.405 597.996 465.842 593.558 465.842 588.084H446.019ZM455.931 515.4H446.019V588.084H455.931H465.842V515.4H455.931Z" fill="#115437"/>
<path fill-rule="evenodd" clip-rule="evenodd" d="M356.815 475.622C415.266 267.465 496.266 231.83 723.542 307.126C614.257 549.2 534.95 591.226 356.815 475.622Z" fill="#8DA78C" stroke="#115437" stroke-width="19.8231"/>
<path d="M603.362 376.75L358.878 475.865" stroke="#115437" stroke-width="19.8231" stroke-linecap="round"/>
<path fill-rule="evenodd" clip-rule="evenodd" d="M465.842 475.622C407.391 267.465 326.392 231.83 99.1152 307.126C208.4 549.2 287.707 591.226 465.842 475.622Z" fill="#8DA78C" stroke="#115437" stroke-width="19.8231"/>
<path d="M219.295 376.75L463.78 475.865" stroke="#115437" stroke-width="19.8231" stroke-linecap="round"/>
<path d="M186.71 118.195L250.607 189.991L237.496 201.659L166.044 184.27L165.518 184.738L205.734 229.926L190.555 243.436L126.658 171.64L139.979 159.784L211.154 177.356L211.785 176.795L171.6 131.642L186.71 118.195Z" fill="#115437"/>
<path d="M299.212 109.95C304.138 119.201 306.576 128.005 306.524 136.363C306.501 144.705 304.39 152.191 300.194 158.821C296.01 165.409 290.176 170.695 282.693 174.68C275.154 178.695 267.476 180.586 259.66 180.353C251.845 180.119 244.469 177.684 237.534 173.048C230.598 168.411 224.675 161.481 219.763 152.258C214.837 143.006 212.386 134.21 212.41 125.867C212.433 117.525 214.537 110.06 218.721 103.472C222.89 96.8568 228.744 91.5419 236.283 87.5273C243.766 83.5422 251.416 81.6662 259.232 81.8994C267.061 82.0903 274.443 84.5041 281.378 89.1407C288.341 93.7627 294.286 100.699 299.212 109.95ZM281.027 119.634C277.836 113.641 274.248 109.066 270.262 105.907C266.303 102.733 262.142 100.944 257.779 100.538C253.416 100.132 249.066 101.083 244.731 103.392C240.395 105.701 237.178 108.779 235.08 112.626C232.981 116.472 232.13 120.931 232.526 126.002C232.949 131.057 234.757 136.582 237.948 142.574C241.139 148.567 244.714 153.15 248.672 156.323C252.658 159.482 256.833 161.264 261.196 161.67C265.56 162.076 269.909 161.124 274.244 158.816C278.58 156.507 281.797 153.429 283.896 149.582C285.994 145.735 286.832 141.284 286.408 136.228C286.012 131.158 284.218 125.626 281.027 119.634Z" fill="#115437"/>
<path d="M345.367 98.5594L349.921 113.754L307.933 126.336L303.38 111.142L345.367 98.5594Z" fill="#115437"/>
<path d="M392.28 138.794L358.368 142.074L349.117 46.4079L383.31 43.1015C392.932 42.171 401.401 43.2852 408.716 46.4441C416.028 49.5718 421.897 54.5206 426.324 61.2906C430.781 68.0575 433.49 76.408 434.451 86.3421C435.415 96.3072 434.359 105.053 431.283 112.58C428.239 120.104 423.399 126.12 416.762 130.628C410.157 135.133 401.996 137.855 392.28 138.794ZM376.918 122.788L389.764 121.546C395.743 120.967 400.67 119.422 404.544 116.91C408.447 114.364 411.21 110.749 412.831 106.066C414.481 101.349 414.961 95.4247 414.272 88.2934C413.588 81.2243 411.986 75.5485 409.466 71.266C406.977 66.9804 403.591 63.976 399.306 62.2529C395.022 60.5298 389.89 59.9573 383.911 60.5355L371.019 61.7822L376.918 122.788Z" fill="#115437"/>
<path d="M432.868 134.8L444.324 39.3737L508.625 47.0928L506.628 63.7272L462.503 58.4301L459.773 81.1685L500.59 86.0685L498.593 102.703L457.776 97.803L455.041 120.588L499.353 125.907L497.356 142.542L432.868 134.8Z" fill="#115437"/>
<path d="M593.926 109.651L574.574 102.72C575.118 100.089 575.193 97.6072 574.799 95.2728C574.416 92.9091 573.618 90.7291 572.406 88.7328C571.193 86.7366 569.6 84.9694 567.625 83.4313C565.68 81.9037 563.411 80.6757 560.819 79.7473C556.136 78.0699 551.64 77.7722 547.331 78.8542C543.032 79.9067 539.135 82.2992 535.638 86.0315C532.151 89.7345 529.284 94.7228 527.037 100.996C524.727 107.447 523.743 113.209 524.086 118.284C524.458 123.369 525.981 127.653 528.654 131.136C531.328 134.62 534.948 137.179 539.513 138.814C542.076 139.732 544.568 140.243 546.99 140.346C549.442 140.46 551.754 140.174 553.927 139.49C556.11 138.777 558.098 137.678 559.893 136.194C561.717 134.72 563.282 132.855 564.589 130.598L583.909 137.617C581.92 141.591 579.234 145.149 575.849 148.29C572.504 151.412 568.609 153.888 564.165 155.72C559.761 157.532 554.93 158.493 549.673 158.604C544.455 158.696 538.945 157.703 533.143 155.625C525.073 152.734 518.51 148.323 513.457 142.392C508.432 136.472 505.319 129.391 504.116 121.151C502.943 112.921 504.118 103.887 507.642 94.0494C511.176 84.1823 516.038 76.4526 522.229 70.8601C528.419 65.2677 535.344 61.7995 543.004 60.4554C550.674 59.0818 558.486 59.8193 566.438 62.6677C571.681 64.5456 576.277 67.0227 580.227 70.099C584.206 73.1858 587.427 76.7654 589.889 80.8379C592.363 84.8809 593.961 89.3251 594.685 94.1704C595.438 99.0263 595.185 104.186 593.926 109.651Z" fill="#115437"/>
<path d="M581.247 174.769L563.093 162.745L643.828 100.937L665.66 115.397L640.21 213.822L622.056 201.798L642.929 126.685L642.303 126.27L581.247 174.769ZM600.974 142.522L643.856 170.924L635.097 184.148L592.215 155.746L600.974 142.522Z" fill="#115437"/>
<path d="M694.656 134.716L710.276 151.271L695.209 195.617L695.853 196.3L741 183.835L756.62 200.391L687.368 217.533L662.654 240.85L648.806 226.172L673.519 202.855L694.656 134.716Z" fill="#115437"/>
</svg>
