<svg xmlns="http://www.w3.org/2000/svg" xmlns:xlink="http://www.w3.org/1999/xlink" width="308" zoomAndPan="magnify" viewBox="0 0 230.87999 201.000001" height="268" preserveAspectRatio="xMidYMid meet" version="1.0"><defs><clipPath id="fa9b0d6e46"><path d="M 12 32 L 229.621094 32 L 229.621094 200.003906 L 12 200.003906 Z M 12 32 " clip-rule="nonzero"/></clipPath><clipPath id="53bce0aac4"><path d="M 12 0 L 229.621094 0 L 229.621094 200.003906 L 12 200.003906 Z M 12 0 " clip-rule="nonzero"/></clipPath></defs><g clip-path="url(#fa9b0d6e46)"><path fill="#f4cb64" d="M 229.25 72.082031 L 217.40625 87.742188 C 219.835938 88.929688 223 88.847656 223.03125 88.847656 C 223.773438 88.828125 224.417969 89.34375 224.558594 90.066406 L 227.128906 103.113281 C 227.230469 103.65625 227.039062 104.210938 226.609375 104.5625 C 226.546875 104.613281 220.632812 109.546875 213.296875 118.394531 C 207.640625 125.230469 199.171875 128.511719 194.78125 129.828125 L 199.503906 131.609375 C 200.097656 131.832031 200.476562 132.394531 200.476562 133.019531 L 200.476562 147.917969 C 200.476562 148.589844 200.035156 149.175781 199.402344 149.367188 C 199.375 149.375 195.554688 150.644531 189.859375 157.308594 C 184.074219 164.0625 174.1875 171.921875 159.480469 171.921875 C 159.359375 171.921875 159.226562 171.914062 159.097656 171.914062 L 159.097656 176.191406 C 159.097656 176.835938 158.695312 177.410156 158.09375 177.621094 L 152.679688 179.535156 C 142.128906 192.488281 123.886719 200.007812 103.734375 200.007812 C 101.140625 200.007812 98.507812 199.875 95.855469 199.625 C 67.042969 196.855469 42.570312 180.078125 28.6875 153.59375 C 0.515625 99.832031 15.90625 72.351562 26.515625 61.320312 C 27.851562 61.472656 29.160156 61.589844 30.445312 61.683594 C 32.765625 61.875 34.996094 61.972656 37.136719 62.015625 C 69.03125 62.609375 81.398438 48.40625 86.199219 37.363281 C 86.210938 37.34375 86.21875 37.3125 86.230469 37.292969 C 86.5 36.667969 86.753906 36.054688 86.972656 35.460938 C 87.34375 34.445312 87.667969 33.46875 87.929688 32.550781 C 88.210938 32.601562 88.5 32.632812 88.78125 32.652344 C 88.933594 32.664062 89.09375 32.671875 89.246094 32.691406 C 99.148438 33.476562 106.484375 36.15625 118.015625 43.152344 C 132.242188 51.785156 150.003906 54.90625 172.316406 52.703125 C 198.597656 50.105469 205.230469 51.898438 211.707031 54.707031 C 217.597656 57.253906 224.375 56.488281 224.449219 56.476562 C 225.191406 56.386719 225.894531 56.859375 226.085938 57.59375 L 229.5 70.792969 C 229.621094 71.234375 229.519531 71.707031 229.25 72.082031 Z M 229.25 72.082031 " fill-opacity="1" fill-rule="nonzero"/></g><path fill="#b7e59a" d="M 89.246094 32.691406 C 85.507812 41.519531 71.09375 67.601562 33.589844 59.558594 C 33.339844 59.507812 33.085938 59.457031 32.824219 59.394531 C 31.710938 59.144531 30.566406 58.863281 29.410156 58.550781 C 38.058594 50.558594 36.203125 39.695312 35.367188 36.40625 C 30.425781 36.09375 24.789062 34.65625 24.085938 29.742188 C 23.34375 24.519531 24.636719 14.824219 28.996094 10.234375 C 30.714844 8.445312 32.777344 7.597656 34.957031 7.808594 C 41.664062 8.453125 51.429688 4.253906 58.574219 1.195312 L 58.84375 1.074219 C 61.347656 -0.00390625 63.929688 0.167969 66.308594 1.558594 C 70.78125 4.164062 73.753906 10.597656 74.277344 15.316406 C 74.585938 18.136719 73.550781 20.492188 72.164062 22.3125 C 74.527344 24.921875 81.679688 32.136719 88.78125 32.652344 C 88.933594 32.660156 89.09375 32.671875 89.246094 32.691406 Z M 89.246094 32.691406 " fill-opacity="1" fill-rule="nonzero"/><path fill="#634229" d="M 157.25 164.542969 L 157.25 176.023438 L 151.949219 178.59375 C 151.949219 178.59375 145.300781 171.484375 150.207031 163.515625 C 150.207031 163.515625 154.429688 164.628906 157.25 164.542969 Z M 157.25 164.542969 " fill-opacity="1" fill-rule="nonzero"/><g clip-path="url(#53bce0aac4)"><path fill="#634229" d="M 229.5 70.792969 L 226.085938 57.59375 C 225.894531 56.859375 225.191406 56.386719 224.449219 56.476562 C 224.378906 56.488281 217.597656 57.253906 211.707031 54.707031 C 205.230469 51.898438 198.597656 50.105469 172.316406 52.703125 C 150.003906 54.90625 132.242188 51.789062 118.015625 43.152344 C 106.484375 36.15625 99.152344 33.476562 89.246094 32.691406 C 89.09375 32.671875 88.933594 32.664062 88.78125 32.652344 C 88.5 32.632812 88.210938 32.601562 87.929688 32.550781 C 81.117188 31.566406 74.4375 24.820312 72.164062 22.316406 C 73.550781 20.492188 74.585938 18.136719 74.277344 15.320312 C 73.753906 10.597656 70.78125 4.164062 66.308594 1.558594 C 63.929688 0.171875 61.347656 0 58.84375 1.074219 L 58.574219 1.195312 C 51.429688 4.257812 41.664062 8.453125 34.957031 7.8125 C 32.777344 7.597656 30.714844 8.445312 28.996094 10.234375 C 24.636719 14.824219 23.34375 24.519531 24.085938 29.742188 C 24.789062 34.65625 30.425781 36.097656 35.367188 36.40625 C 36.203125 39.699219 38.058594 50.558594 29.410156 58.550781 C 29.289062 58.671875 29.160156 58.792969 29.027344 58.90625 C 28.242188 59.597656 27.402344 60.402344 26.515625 61.320312 C 15.90625 72.351562 0.515625 99.832031 28.6875 153.59375 C 42.570312 180.078125 67.042969 196.855469 95.855469 199.625 C 98.507812 199.875 101.140625 200.007812 103.730469 200.007812 C 123.882812 200.007812 142.128906 192.488281 152.675781 179.535156 L 158.089844 177.621094 C 158.695312 177.410156 159.097656 176.835938 159.097656 176.191406 L 159.097656 171.914062 C 159.226562 171.914062 159.355469 171.921875 159.476562 171.921875 C 174.1875 171.921875 184.070312 164.0625 189.859375 157.308594 C 195.554688 150.644531 199.371094 149.375 199.402344 149.367188 C 200.035156 149.175781 200.476562 148.589844 200.476562 147.917969 L 200.476562 133.019531 C 200.476562 132.394531 200.09375 131.832031 199.503906 131.609375 L 194.78125 129.828125 C 199.171875 128.511719 207.640625 125.230469 213.296875 118.394531 C 220.628906 109.546875 226.546875 104.613281 226.605469 104.5625 C 227.039062 104.210938 227.230469 103.65625 227.128906 103.113281 L 224.558594 90.066406 C 224.417969 89.34375 223.773438 88.828125 223.03125 88.847656 C 223 88.847656 219.835938 88.929688 217.40625 87.742188 L 229.25 72.082031 C 229.519531 71.707031 229.621094 71.234375 229.5 70.792969 Z M 32.828125 59.398438 C 40.480469 51.121094 39.386719 40.785156 38.472656 36.476562 C 40.640625 36.4375 42.351562 36.234375 42.871094 36.175781 C 43.695312 36.066406 44.28125 35.308594 44.179688 34.484375 C 44.066406 33.660156 43.316406 33.074219 42.492188 33.175781 C 38.703125 33.660156 27.734375 33.980469 27.070312 29.320312 C 26.328125 24.117188 27.933594 15.742188 31.179688 12.332031 C 32.265625 11.191406 33.410156 10.699219 34.675781 10.820312 C 42.140625 11.535156 52.324219 7.167969 59.757812 3.964844 L 60.03125 3.855469 C 61.667969 3.148438 63.226562 3.25 64.792969 4.164062 C 68.238281 6.179688 70.839844 11.695312 71.28125 15.652344 C 71.835938 20.703125 65.636719 24.054688 65.574219 24.085938 C 64.839844 24.46875 64.550781 25.382812 64.941406 26.117188 C 65.324219 26.863281 66.238281 27.144531 66.972656 26.761719 C 67.113281 26.683594 68.539062 25.917969 70.097656 24.539062 C 72.6875 27.367188 79.5 34.09375 86.976562 35.460938 C 87.015625 35.46875 87.042969 35.46875 87.085938 35.480469 C 86.875 35.992188 86.582031 36.597656 86.230469 37.292969 C 86.222656 37.3125 86.210938 37.34375 86.203125 37.363281 C 85.527344 38.679688 84.613281 40.292969 83.398438 42.03125 C 74.386719 38.398438 71.503906 34.210938 71.453125 34.121094 C 71 33.425781 70.078125 33.226562 69.375 33.667969 C 68.671875 34.121094 68.46875 35.054688 68.910156 35.761719 C 69.0625 35.992188 72.078125 40.5625 81.519531 44.53125 C 80.152344 46.210938 78.535156 47.941406 76.597656 49.613281 C 75.824219 50.296875 75.011719 50.929688 74.1875 51.535156 C 65.144531 46.59375 63.566406 44.539062 61.589844 36.042969 C 61.398438 35.230469 60.59375 34.726562 59.78125 34.917969 C 58.96875 35.109375 58.464844 35.914062 58.65625 36.730469 C 60.816406 46.019531 63.308594 48.886719 71.363281 53.429688 C 67.0625 56.085938 62.210938 57.996094 56.855469 59.125 C 51.882812 52.453125 51.148438 48.789062 50.609375 39.726562 C 50.558594 38.894531 49.84375 38.257812 49.011719 38.308594 C 48.1875 38.359375 47.554688 39.074219 47.605469 39.898438 C 48.117188 48.574219 48.8125 52.914062 53.59375 59.71875 C 47.464844 60.625 40.773438 60.574219 33.589844 59.554688 C 33.320312 59.527344 33.046875 59.488281 32.777344 59.445312 L 32.824219 59.394531 Z M 96.148438 196.613281 C 68.371094 193.949219 44.75 177.75 31.359375 152.195312 C 2.40625 96.941406 20.5625 70.792969 30.445312 61.683594 C 30.628906 61.511719 30.808594 61.351562 30.980469 61.199219 C 33.097656 61.550781 35.160156 61.824219 37.136719 62.015625 C 39.710938 62.277344 42.160156 62.398438 44.492188 62.398438 C 48.257812 62.398438 51.714844 62.074219 54.917969 61.53125 C 55.53125 62.347656 56.175781 63.171875 56.898438 64.070312 C 59.460938 67.210938 60.222656 72.644531 61.199219 79.53125 C 62.867188 91.289062 65.136719 107.390625 78.457031 123.367188 C 92.5625 140.269531 113.589844 147.878906 127.503906 152.902344 C 134.132812 155.296875 139.851562 157.371094 141.796875 159.421875 C 144.078125 161.828125 146.550781 163.226562 148.859375 164.011719 L 147.886719 167.878906 C 147.113281 170.949219 147.714844 174.199219 149.535156 176.796875 L 150.207031 177.761719 C 138.894531 191.523438 118.269531 198.742188 96.148438 196.617188 Z M 156.082031 175.125 L 151.863281 176.625 L 151.171875 175.636719 C 149.695312 173.523438 149.203125 170.875 149.835938 168.371094 L 150.800781 164.542969 C 152.917969 164.996094 154.789062 164.976562 156.082031 164.867188 Z M 187.566406 155.335938 C 182.164062 161.667969 172.859375 169.015625 159.097656 168.882812 L 159.097656 163.105469 C 159.097656 162.640625 158.886719 162.199219 158.515625 161.917969 C 158.152344 161.625 157.671875 161.523438 157.21875 161.644531 C 156.917969 161.714844 149.753906 163.425781 143.976562 157.335938 C 141.546875 154.769531 136.082031 152.796875 128.527344 150.058594 C 114.914062 145.136719 94.347656 137.707031 80.777344 121.429688 C 76.507812 116.316406 73.433594 111.175781 71.152344 106.171875 C 76.214844 113.429688 84.09375 122.347656 94.269531 126.667969 C 94.398438 126.714844 94.53125 126.746094 94.660156 126.746094 C 95.054688 126.746094 95.425781 126.515625 95.585938 126.132812 C 95.804688 125.621094 95.566406 125.023438 95.050781 124.8125 C 80.734375 118.746094 70.882812 102.578125 67.617188 96.578125 C 65.746094 90.1875 64.902344 84.21875 64.179688 79.105469 C 63.144531 71.757812 62.320312 65.949219 59.238281 62.164062 C 58.875 61.710938 58.535156 61.289062 58.203125 60.863281 C 64.261719 59.457031 69.242188 57.160156 73.304688 54.492188 C 74.308594 55.035156 75.371094 55.609375 76.539062 56.222656 C 83.890625 60.109375 85.960938 63.84375 90.070312 71.292969 C 92.621094 75.902344 95.785156 81.628906 101.289062 89.53125 C 116.160156 110.851562 145.464844 120.082031 166.039062 121.5 C 183.609375 122.71875 191.203125 130.628906 192.199219 131.757812 L 190.460938 137.335938 C 189.527344 140.332031 189.917969 143.605469 191.535156 146.304688 L 193.476562 149.523438 C 191.816406 150.84375 189.816406 152.714844 187.566406 155.332031 Z M 197.464844 134.066406 L 197.464844 146.917969 C 196.878906 147.199219 196.078125 147.644531 195.09375 148.320312 L 193.253906 145.257812 C 191.9375 143.066406 191.617188 140.386719 192.378906 137.941406 L 193.996094 132.757812 Z M 218.1875 96.417969 L 218.882812 91.40625 C 220.015625 91.667969 221.0625 91.789062 221.835938 91.839844 L 223.996094 102.832031 C 223.390625 103.355469 222.410156 104.25 221.132812 105.46875 L 220.46875 104.652344 C 218.621094 102.347656 217.785156 99.347656 218.1875 96.417969 Z M 218.910156 105.910156 L 219.6875 106.886719 C 217.335938 109.234375 214.320312 112.433594 210.976562 116.460938 C 204.867188 123.847656 194.75 126.777344 192.027344 127.453125 C 188.238281 124.351562 180.183594 119.460938 166.25 118.496094 C 151.230469 117.457031 131.4375 112.152344 116.5 100.847656 C 127.339844 106.273438 146.207031 113.199219 172.066406 113.199219 C 179.601562 113.199219 187.71875 112.605469 196.398438 111.226562 C 196.941406 111.148438 197.3125 110.625 197.230469 110.082031 C 197.140625 109.527344 196.628906 109.164062 196.078125 109.246094 C 147.472656 116.964844 116.960938 99.53125 109.128906 94.308594 C 107.1875 92.285156 105.378906 90.117188 103.761719 87.804688 C 98.347656 80.035156 95.222656 74.375 92.710938 69.828125 C 88.441406 62.117188 86.089844 57.859375 77.941406 53.558594 C 77.28125 53.207031 76.648438 52.867188 76.035156 52.542969 C 79.078125 50.199219 81.488281 47.671875 83.398438 45.285156 C 85.265625 45.980469 87.335938 46.65625 89.667969 47.269531 C 95.402344 48.789062 100.277344 53.015625 105.921875 57.910156 C 114.921875 65.710938 126.125 75.414062 146.234375 78.65625 C 158.480469 80.636719 168.609375 80.808594 177.539062 80.960938 C 192.367188 81.210938 203.085938 81.402344 214.347656 89.363281 C 214.347656 89.363281 214.359375 89.375 214.367188 89.375 C 215.152344 90 216.035156 90.460938 216.941406 90.816406 L 216.199219 96.148438 C 215.714844 99.621094 216.710938 103.1875 218.910156 105.914062 Z M 214.875 86.089844 C 207.328125 81.089844 199.867188 79.246094 191.636719 78.511719 C 202.285156 76.46875 205.640625 73.992188 205.820312 73.851562 C 206.265625 73.519531 206.34375 72.882812 206.011719 72.453125 C 205.679688 72.007812 205.046875 71.917969 204.605469 72.25 C 204.554688 72.289062 199.3125 76.046875 181.136719 78.007812 C 179.972656 77.976562 178.796875 77.957031 177.589844 77.9375 C 168.761719 77.785156 158.753906 77.617188 146.71875 75.671875 C 127.449219 72.5625 117.0625 63.5625 107.902344 55.621094 C 101.964844 50.488281 96.851562 46.046875 90.429688 44.347656 C 88.542969 43.855469 86.832031 43.308594 85.277344 42.746094 C 87.335938 39.746094 88.5625 37.171875 89.164062 35.710938 C 98.558594 36.476562 105.296875 38.960938 116.449219 45.726562 C 131.257812 54.714844 149.632812 57.976562 172.617188 55.710938 C 198.175781 53.175781 204.445312 54.847656 210.511719 57.472656 C 212.730469 58.441406 215.023438 58.984375 217.113281 59.273438 L 217.113281 65.425781 C 217.113281 68.0625 218.128906 70.558594 219.976562 72.441406 L 222.917969 75.441406 L 214.871094 86.089844 Z M 224.148438 73.820312 L 221.414062 71.03125 C 219.9375 69.535156 219.121094 67.539062 219.121094 65.425781 L 219.121094 59.496094 C 220.921875 59.648438 222.46875 59.628906 223.484375 59.578125 L 226.394531 70.839844 L 224.144531 73.820312 Z M 224.148438 73.820312 " fill-opacity="1" fill-rule="nonzero"/></g><path fill="#634229" d="M 129.628906 172.023438 C 96.851562 169.382812 72.210938 158.382812 56.394531 139.328125 C 34.210938 112.597656 37.402344 78.890625 37.4375 78.554688 C 37.492188 78 37.09375 77.507812 36.542969 77.449219 C 35.996094 77.394531 35.496094 77.792969 35.4375 78.34375 C 35.402344 78.691406 32.109375 113.199219 54.832031 140.59375 C 71.007812 160.09375 96.117188 171.339844 129.464844 174.027344 C 129.492188 174.03125 129.519531 174.03125 129.546875 174.03125 C 130.066406 174.03125 130.503906 173.632812 130.546875 173.105469 C 130.59375 172.550781 130.179688 172.066406 129.628906 172.023438 Z M 129.628906 172.023438 " fill-opacity="1" fill-rule="nonzero"/><path fill="#634229" d="M 172.324219 146.578125 C 129.246094 149.085938 113.179688 135.652344 113.019531 135.515625 C 112.601562 135.152344 111.96875 135.195312 111.605469 135.613281 C 111.242188 136.035156 111.285156 136.667969 111.703125 137.035156 C 112.308594 137.5625 125.757812 148.910156 161.65625 148.910156 C 165.046875 148.910156 168.644531 148.808594 172.441406 148.585938 C 172.996094 148.554688 173.421875 148.078125 173.386719 147.523438 C 173.355469 146.96875 172.890625 146.558594 172.328125 146.578125 Z M 172.324219 146.578125 " fill-opacity="1" fill-rule="nonzero"/><path fill="#634229" d="M 193.476562 131.007812 C 193.476562 131.007812 190.167969 136.597656 191.234375 142.089844 C 192.304688 147.582031 194.71875 149.511719 194.71875 149.511719 L 198.675781 147.710938 L 198.675781 133.449219 Z M 193.476562 131.007812 " fill-opacity="1" fill-rule="nonzero"/><path fill="#634229" d="M 218.089844 89.886719 C 218.089844 89.886719 216.871094 93.3125 217.144531 98.4375 C 217.414062 103.5625 221.761719 107.234375 221.761719 107.234375 L 226.398438 103.894531 L 222.921875 91.066406 Z M 218.089844 89.886719 " fill-opacity="1" fill-rule="nonzero"/><path fill="#634229" d="M 218.089844 58.019531 C 218.089844 58.019531 217.339844 65.007812 219.125 69.199219 C 220.90625 73.386719 223.996094 75.109375 223.996094 75.109375 L 227.660156 70.871094 L 223.996094 58.535156 Z M 218.089844 58.019531 " fill-opacity="1" fill-rule="nonzero"/></svg>